{"glyphs":{"0":{"ha":742,"x_min":0,"x_max":0,"o":"m 616 795 b 134 639 474 969 169 846 b 96 293 39 578 110 398 b 344 -100 130 139 163 -55 b 616 795 644 -110 715 598 z m 203 458 b 543 519 133 783 627 952 b 203 458 594 -59 165 -245 z "},"1":{"ha":765,"x_min":0,"x_max":0,"o":"m 609 783 b 100 449 419 703 284 542 b 575 654 -16 195 520 623 b 571 -155 587 565 350 -369 b 609 783 521 -18 809 868 z "},"2":{"ha":958,"x_min":0,"x_max":0,"o":"m 839 -124 b 400 -29 699 -65 549 -59 b 834 659 605 151 813 375 b 789 963 856 754 897 903 b 93 668 532 965 285 833 b 391 766 26 466 335 741 b 744 880 515 784 624 860 b 405 -141 898 228 -161 -102 b 839 -124 459 -131 1021 -283 z "},"3":{"ha":1160,"x_min":0,"x_max":0,"o":"m 1035 834 b 87 577 733 736 346 761 b 185 549 65 519 164 492 b 859 709 399 624 635 660 b 494 261 732 575 -52 322 b 809 74 589 218 860 229 b 197 77 671 -7 348 25 b 168 -31 137 90 108 -18 b 911 53 392 -77 753 -146 b 487 365 942 261 647 346 b 1035 834 564 443 1248 733 z "},"4":{"ha":838,"x_min":0,"x_max":0,"o":"m 739 682 b 640 682 732 743 633 743 b 644 276 675 546 632 414 b 225 285 508 300 364 287 b 100 781 262 348 189 1080 b 143 293 153 622 125 457 b 629 191 -117 129 556 212 b 645 169 633 186 639 172 b 753 -230 652 95 600 -447 b 739 682 677 69 779 378 z "},"5":{"ha":875,"x_min":0,"x_max":0,"o":"m 583 377 b 288 412 490 439 392 444 b 254 572 282 467 274 521 b 723 731 344 612 726 633 b 168 658 628 801 293 689 b 191 389 65 597 207 479 b 208 319 169 370 187 337 b 292 316 215 270 283 266 b 684 116 454 348 656 306 b 181 -81 593 -34 338 -44 b 84 -76 175 -29 95 -22 b 583 377 52 -343 1264 -7 z "},"6":{"ha":867,"x_min":0,"x_max":0,"o":"m 196 304 b 169 289 189 303 175 292 b 464 791 195 494 342 641 b 367 804 475 852 359 885 b 352 806 367 803 352 807 b 434 -261 -1 522 -38 -62 b 196 304 991 -232 859 371 z m 647 -52 b 179 202 522 -347 178 -8 b 647 -52 344 224 769 211 z "},"7":{"ha":833,"x_min":0,"x_max":0,"o":"m 715 347 b 550 390 660 363 607 381 b 637 847 563 531 802 745 b 119 889 466 906 296 926 b 142 818 58 881 81 810 b 608 778 295 835 463 830 b 590 721 628 765 598 741 b 453 405 567 606 475 524 b 414 302 212 437 91 307 b 350 40 398 214 376 128 b 515 298 434 -175 488 234 b 691 259 574 290 633 277 b 715 347 750 242 774 329 z "},"8":{"ha":776,"x_min":0,"x_max":0,"o":"m 386 384 b 360 393 381 387 364 391 b 586 789 436 525 519 655 b 579 890 657 796 653 909 b 577 909 578 889 578 909 b 494 862 543 930 511 890 b 257 357 193 801 -121 606 b 248 -13 182 219 -87 -66 b 386 384 760 -26 862 94 z m 230 500 b 440 748 7 615 348 697 b 309 453 384 655 334 559 b 297 455 306 448 299 460 b 230 500 275 472 251 482 z m 565 101 b 198 82 447 58 322 65 b 331 294 245 152 290 220 b 529 190 381 234 467 232 b 619 98 561 166 574 107 b 565 101 619 98 572 102 z "},"9":{"ha":749,"x_min":0,"x_max":0,"o":"m 340 851 b 407 348 -110 794 109 447 b 453 428 460 315 506 395 b 196 676 356 489 163 522 b 576 559 279 853 613 755 b 225 -34 511 331 303 185 b 340 -66 208 -93 323 -125 b 446 181 370 19 408 100 b 340 851 691 401 820 864 z "},"\u0000":{"ha":0,"x_min":0,"x_max":0,"o":""},"\n":{"ha":0,"x_min":0,"x_max":0,"o":""},"\r":{"ha":0,"x_min":0,"x_max":0,"o":""}," ":{"ha":806,"x_min":0,"x_max":0,"o":""},"(":{"ha":567,"x_min":0,"x_max":0,"o":"m 420 941 b 125 421 221 858 165 613 b 245 -308 33 167 103 -90 b 337 -399 271 -343 307 -370 b 408 -327 382 -441 453 -370 b 196 278 273 -160 119 53 b 456 881 218 489 273 750 b 420 941 509 911 474 971 z "},")":{"ha":544,"x_min":0,"x_max":0,"o":"m 415 681 b 240 934 403 787 361 913 b 212 828 179 944 151 838 b 99 -291 503 676 313 -102 b 149 -342 57 -336 107 -388 b 415 681 415 -94 534 334 z "},",":{"ha":372,"x_min":0,"x_max":0,"o":"m 286 15 b 157 -9 321 137 20 47 b 196 -47 151 -38 175 -41 b 114 -255 192 -125 13 -175 b 287 -56 201 -270 250 -119 b 286 15 296 -24 270 -15 z "},".":{"ha":388,"x_min":0,"x_max":0,"o":"m 266 -7 b 282 76 303 4 321 52 b 122 43 288 132 146 63 b 97 1 89 35 68 35 b 107 -50 96 -16 94 -37 b 239 -104 150 -67 197 -87 b 266 -7 293 -107 317 -29 z "},":":{"ha":385,"x_min":0,"x_max":0,"o":"m 284 238 b 284 256 282 244 288 252 b 250 284 250 254 265 266 b 217 296 235 253 244 299 b 189 291 216 279 199 295 b 136 237 164 282 104 269 b 139 211 126 224 122 218 b 173 169 146 197 159 173 b 182 152 159 175 178 156 b 206 153 187 147 200 155 b 276 185 234 146 270 150 b 283 198 286 173 280 192 b 300 212 287 203 299 206 b 284 238 302 221 286 229 z m 157 568 b 165 557 158 568 165 557 b 208 541 185 556 194 552 b 233 572 219 544 224 564 b 268 601 245 578 264 587 b 246 632 270 613 253 621 b 204 664 245 664 236 672 b 117 642 203 742 89 668 b 157 568 44 625 103 518 z "},"A":{"ha":1572,"x_min":0,"x_max":0,"o":"m 1486 84 b 1440 157 1478 113 1459 135 b 1236 393 1372 236 1304 314 b 1168 507 1207 427 1174 458 b 1120 563 1165 534 1146 559 b 995 662 1057 571 1029 617 b 793 856 939 737 876 808 b 562 812 703 909 625 895 b 509 720 541 784 523 752 b 443 548 485 664 464 606 b 366 440 428 504 411 464 b 336 393 349 431 333 413 b 270 262 347 332 308 297 b 129 101 217 213 175 155 b 83 -27 101 68 83 31 b 102 -97 85 -43 84 -72 b 135 -98 110 -107 129 -108 b 180 -1 152 -66 155 -29 b 311 142 224 46 266 96 b 469 325 369 199 429 254 b 541 365 485 354 509 366 b 619 365 567 365 593 366 b 1026 381 755 359 891 360 b 1127 338 1072 388 1100 371 b 1352 71 1201 248 1277 160 b 1411 21 1369 51 1387 32 b 1466 23 1430 12 1448 11 b 1486 84 1484 35 1492 61 z m 931 486 b 844 479 902 482 873 479 b 728 481 805 478 766 480 b 728 478 728 480 728 479 b 670 480 708 479 689 479 b 588 607 533 483 540 473 b 640 721 602 647 619 685 b 747 747 667 766 700 774 b 816 695 772 733 794 714 b 952 531 869 647 908 587 b 931 486 971 508 963 491 z "},"À":{"ha":1572,"x_min":0,"x_max":0,"o":"m 1486 84 b 1440 157 1478 113 1459 135 b 1236 393 1372 236 1304 314 b 1168 507 1207 427 1174 458 b 1120 563 1165 534 1146 559 b 995 662 1057 571 1029 617 b 793 856 939 737 876 808 b 562 812 703 909 625 895 b 509 720 541 784 523 752 b 443 548 485 664 464 606 b 366 440 428 504 411 464 b 336 393 349 431 333 413 b 270 262 347 332 308 297 b 129 101 217 213 175 155 b 83 -27 101 68 83 31 b 102 -97 85 -43 84 -72 b 135 -98 110 -107 129 -108 b 180 -1 152 -66 155 -29 b 311 142 224 46 266 96 b 469 325 369 199 429 254 b 541 365 485 354 509 366 b 619 365 567 365 593 366 b 1026 381 755 359 891 360 b 1127 338 1072 388 1100 371 b 1352 71 1201 248 1277 160 b 1411 21 1369 51 1387 32 b 1466 23 1430 12 1448 11 b 1486 84 1484 35 1492 61 z m 931 486 b 844 479 902 482 873 479 b 728 481 805 478 766 480 b 728 478 728 480 728 479 b 670 480 708 479 689 479 b 588 607 533 483 540 473 b 640 721 602 647 619 685 b 747 747 667 766 700 774 b 816 695 772 733 794 714 b 952 531 869 647 908 587 b 931 486 971 508 963 491 z "},"Á":{"ha":1572,"x_min":0,"x_max":0,"o":"m 1486 84 b 1440 157 1478 113 1459 135 b 1236 393 1372 236 1304 314 b 1168 507 1207 427 1174 458 b 1120 563 1165 534 1146 559 b 995 662 1057 571 1029 617 b 793 856 939 737 876 808 b 562 812 703 909 625 895 b 509 720 541 784 523 752 b 443 548 485 664 464 606 b 366 440 428 504 411 464 b 336 393 349 431 333 413 b 270 262 347 332 308 297 b 129 101 217 213 175 155 b 83 -27 101 68 83 31 b 102 -97 85 -43 84 -72 b 135 -98 110 -107 129 -108 b 180 -1 152 -66 155 -29 b 311 142 224 46 266 96 b 469 325 369 199 429 254 b 541 365 485 354 509 366 b 619 365 567 365 593 366 b 1026 381 755 359 891 360 b 1127 338 1072 388 1100 371 b 1352 71 1201 248 1277 160 b 1411 21 1369 51 1387 32 b 1466 23 1430 12 1448 11 b 1486 84 1484 35 1492 61 z m 931 486 b 844 479 902 482 873 479 b 728 481 805 478 766 480 b 728 478 728 480 728 479 b 670 480 708 479 689 479 b 588 607 533 483 540 473 b 640 721 602 647 619 685 b 747 747 667 766 700 774 b 816 695 772 733 794 714 b 952 531 869 647 908 587 b 931 486 971 508 963 491 z "},"Â":{"ha":1572,"x_min":0,"x_max":0,"o":"m 1486 84 b 1440 157 1478 113 1459 135 b 1236 393 1372 236 1304 314 b 1168 507 1207 427 1174 458 b 1120 563 1165 534 1146 559 b 995 662 1057 571 1029 617 b 793 856 939 737 876 808 b 562 812 703 909 625 895 b 509 720 541 784 523 752 b 443 548 485 664 464 606 b 366 440 428 504 411 464 b 336 393 349 431 333 413 b 270 262 347 332 308 297 b 129 101 217 213 175 155 b 83 -27 101 68 83 31 b 102 -97 85 -43 84 -72 b 135 -98 110 -107 129 -108 b 180 -1 152 -66 155 -29 b 311 142 224 46 266 96 b 469 325 369 199 429 254 b 541 365 485 354 509 366 b 619 365 567 365 593 366 b 1026 381 755 359 891 360 b 1127 338 1072 388 1100 371 b 1352 71 1201 248 1277 160 b 1411 21 1369 51 1387 32 b 1466 23 1430 12 1448 11 b 1486 84 1484 35 1492 61 z m 931 486 b 844 479 902 482 873 479 b 728 481 805 478 766 480 b 728 478 728 480 728 479 b 670 480 708 479 689 479 b 588 607 533 483 540 473 b 640 721 602 647 619 685 b 747 747 667 766 700 774 b 816 695 772 733 794 714 b 952 531 869 647 908 587 b 931 486 971 508 963 491 z "},"Ã":{"ha":1572,"x_min":0,"x_max":0,"o":"m 1486 84 b 1440 157 1478 113 1459 135 b 1236 393 1372 236 1304 314 b 1168 507 1207 427 1174 458 b 1120 563 1165 534 1146 559 b 995 662 1057 571 1029 617 b 793 856 939 737 876 808 b 562 812 703 909 625 895 b 509 720 541 784 523 752 b 443 548 485 664 464 606 b 366 440 428 504 411 464 b 336 393 349 431 333 413 b 270 262 347 332 308 297 b 129 101 217 213 175 155 b 83 -27 101 68 83 31 b 102 -97 85 -43 84 -72 b 135 -98 110 -107 129 -108 b 180 -1 152 -66 155 -29 b 311 142 224 46 266 96 b 469 325 369 199 429 254 b 541 365 485 354 509 366 b 619 365 567 365 593 366 b 1026 381 755 359 891 360 b 1127 338 1072 388 1100 371 b 1352 71 1201 248 1277 160 b 1411 21 1369 51 1387 32 b 1466 23 1430 12 1448 11 b 1486 84 1484 35 1492 61 z m 931 486 b 844 479 902 482 873 479 b 728 481 805 478 766 480 b 728 478 728 480 728 479 b 670 480 708 479 689 479 b 588 607 533 483 540 473 b 640 721 602 647 619 685 b 747 747 667 766 700 774 b 816 695 772 733 794 714 b 952 531 869 647 908 587 b 931 486 971 508 963 491 z "},"Ä":{"ha":1572,"x_min":0,"x_max":0,"o":"m 1486 84 b 1440 157 1478 113 1459 135 b 1236 393 1372 236 1304 314 b 1168 507 1207 427 1174 458 b 1120 563 1165 534 1146 559 b 995 662 1057 571 1029 617 b 793 856 939 737 876 808 b 562 812 703 909 625 895 b 509 720 541 784 523 752 b 443 548 485 664 464 606 b 366 440 428 504 411 464 b 336 393 349 431 333 413 b 270 262 347 332 308 297 b 129 101 217 213 175 155 b 83 -27 101 68 83 31 b 102 -97 85 -43 84 -72 b 135 -98 110 -107 129 -108 b 180 -1 152 -66 155 -29 b 311 142 224 46 266 96 b 469 325 369 199 429 254 b 541 365 485 354 509 366 b 619 365 567 365 593 366 b 1026 381 755 359 891 360 b 1127 338 1072 388 1100 371 b 1352 71 1201 248 1277 160 b 1411 21 1369 51 1387 32 b 1466 23 1430 12 1448 11 b 1486 84 1484 35 1492 61 z m 931 486 b 844 479 902 482 873 479 b 728 481 805 478 766 480 b 728 478 728 480 728 479 b 670 480 708 479 689 479 b 588 607 533 483 540 473 b 640 721 602 647 619 685 b 747 747 667 766 700 774 b 816 695 772 733 794 714 b 952 531 869 647 908 587 b 931 486 971 508 963 491 z "},"Å":{"ha":1572,"x_min":0,"x_max":0,"o":"m 1486 84 b 1440 157 1478 113 1459 135 b 1236 393 1372 236 1304 314 b 1168 507 1207 427 1174 458 b 1120 563 1165 534 1146 559 b 995 662 1057 571 1029 617 b 793 856 939 737 876 808 b 562 812 703 909 625 895 b 509 720 541 784 523 752 b 443 548 485 664 464 606 b 366 440 428 504 411 464 b 336 393 349 431 333 413 b 270 262 347 332 308 297 b 129 101 217 213 175 155 b 83 -27 101 68 83 31 b 102 -97 85 -43 84 -72 b 135 -98 110 -107 129 -108 b 180 -1 152 -66 155 -29 b 311 142 224 46 266 96 b 469 325 369 199 429 254 b 541 365 485 354 509 366 b 619 365 567 365 593 366 b 1026 381 755 359 891 360 b 1127 338 1072 388 1100 371 b 1352 71 1201 248 1277 160 b 1411 21 1369 51 1387 32 b 1466 23 1430 12 1448 11 b 1486 84 1484 35 1492 61 z m 931 486 b 844 479 902 482 873 479 b 728 481 805 478 766 480 b 728 478 728 480 728 479 b 670 480 708 479 689 479 b 588 607 533 483 540 473 b 640 721 602 647 619 685 b 747 747 667 766 700 774 b 816 695 772 733 794 714 b 952 531 869 647 908 587 b 931 486 971 508 963 491 z "},"B":{"ha":1399,"x_min":0,"x_max":0,"o":"m 1072 864 b 132 931 784 1007 440 1000 b 347 877 -36 824 277 840 b 271 387 304 712 274 557 b 261 302 241 368 230 322 b 247 -157 245 148 267 -2 b 361 -113 266 -252 408 -202 b 924 72 492 -133 936 -112 b 459 332 937 266 596 277 b 1072 864 709 416 1792 551 z m 578 182 b 821 79 669 174 761 156 b 819 79 820 79 819 80 b 349 -20 721 -40 497 -10 b 368 254 343 73 350 164 b 578 182 443 242 511 220 z m 1192 655 b 368 413 923 566 647 479 b 440 887 392 572 425 728 b 1084 728 660 877 895 856 b 1193 655 1113 707 1216 704 z "},"C":{"ha":1226,"x_min":0,"x_max":0,"o":"m 1074 22 b 749 68 961 12 844 4 b 566 166 674 83 615 112 b 340 353 482 224 387 262 b 200 514 285 395 206 438 b 499 668 250 609 409 612 b 1028 819 675 718 840 806 b 1009 929 1089 828 1063 938 b 521 789 836 903 683 830 b 83 503 381 703 82 702 b 975 -96 257 205 607 -58 b 1095 -92 1014 -96 1055 -101 b 1074 22 1167 -72 1155 37 z "},"Ç":{"ha":1226,"x_min":0,"x_max":0,"o":"m 1074 22 b 749 68 961 12 844 4 b 566 166 674 83 615 112 b 340 353 482 224 387 262 b 200 514 285 395 206 438 b 499 668 250 609 409 612 b 1028 819 675 718 840 806 b 1009 929 1089 828 1063 938 b 521 789 836 903 683 830 b 83 503 381 703 82 702 b 975 -96 257 205 607 -58 b 1095 -92 1014 -96 1055 -101 b 1074 22 1167 -72 1155 37 z "},"D":{"ha":1636,"x_min":0,"x_max":0,"o":"m 1536 275 b 1487 359 1522 304 1506 332 b 930 725 1349 552 1156 665 b 448 776 773 767 612 786 b 351 777 416 774 384 776 b 271 836 287 778 287 778 b 250 900 264 857 259 880 b 220 950 243 918 233 935 b 133 960 197 977 161 981 b 128 876 106 941 101 906 b 165 799 147 853 159 829 b 145 707 173 764 136 741 b 195 626 154 676 195 664 b 202 578 195 610 199 594 b 223 454 209 537 216 495 b 225 454 224 454 224 454 b 249 310 233 406 241 358 b 257 252 252 291 256 272 b 215 214 259 226 239 208 b 150 234 193 219 172 229 b 96 221 131 239 111 237 b 91 158 79 202 81 180 b 153 99 103 129 125 110 b 227 77 177 90 202 79 b 305 -6 279 71 299 41 b 318 -63 307 -25 311 -45 b 340 -106 323 -78 331 -93 b 409 -126 356 -129 383 -136 b 440 -71 430 -118 443 -97 b 423 25 436 -39 428 -7 b 455 63 419 47 432 63 b 610 59 507 63 558 61 b 1155 38 792 50 973 35 b 1368 50 1226 39 1297 37 b 1491 104 1414 58 1455 77 b 1536 274 1552 150 1567 206 z m 1404 182 b 1329 162 1380 173 1355 167 b 1116 152 1259 147 1187 152 b 786 159 1006 151 896 151 b 437 184 670 167 554 180 b 381 239 400 186 389 197 b 348 430 368 302 359 366 l 345 430 b 313 621 335 494 322 557 b 357 670 308 656 321 669 b 971 591 566 674 772 654 b 1403 261 1153 532 1297 421 b 1424 228 1410 251 1418 240 b 1404 182 1433 209 1426 189 z "},"E":{"ha":1479,"x_min":0,"x_max":0,"o":"m 1331 836 b 334 896 1001 893 669 878 b 227 894 315 933 247 930 b 84 835 178 884 78 908 b 228 783 77 738 169 774 b 214 489 219 685 204 588 b 215 367 33 527 46 363 b 276 -42 258 239 153 52 b 1151 -70 508 -196 881 -58 b 1218 -14 1185 -67 1217 -41 b 935 24 1186 81 1015 10 b 497 1 789 -20 642 40 b 329 361 225 -39 355 196 b 566 338 407 338 485 331 b 801 305 643 307 718 293 b 980 366 858 310 972 290 b 920 417 981 395 957 420 b 339 482 726 424 524 419 b 325 785 308 582 341 682 b 1221 739 623 756 925 784 b 1331 727 1258 737 1295 729 b 1331 836 1409 730 1423 839 z "},"È":{"ha":1479,"x_min":0,"x_max":0,"o":"m 1331 836 b 334 896 1001 893 669 878 b 227 894 315 933 247 930 b 84 835 178 884 78 908 b 228 783 77 738 169 774 b 214 489 219 685 204 588 b 215 367 33 527 46 363 b 276 -42 258 239 153 52 b 1151 -70 508 -196 881 -58 b 1218 -14 1185 -67 1217 -41 b 935 24 1186 81 1015 10 b 497 1 789 -20 642 40 b 329 361 225 -39 355 196 b 566 338 407 338 485 331 b 801 305 643 307 718 293 b 980 366 858 310 972 290 b 920 417 981 395 957 420 b 339 482 726 424 524 419 b 325 785 308 582 341 682 b 1221 739 623 756 925 784 b 1331 727 1258 737 1295 729 b 1331 836 1409 730 1423 839 z "},"É":{"ha":1479,"x_min":0,"x_max":0,"o":"m 1331 836 b 334 896 1001 893 669 878 b 227 894 315 933 247 930 b 84 835 178 884 78 908 b 228 783 77 738 169 774 b 214 489 219 685 204 588 b 215 367 33 527 46 363 b 276 -42 258 239 153 52 b 1151 -70 508 -196 881 -58 b 1218 -14 1185 -67 1217 -41 b 935 24 1186 81 1015 10 b 497 1 789 -20 642 40 b 329 361 225 -39 355 196 b 566 338 407 338 485 331 b 801 305 643 307 718 293 b 980 366 858 310 972 290 b 920 417 981 395 957 420 b 339 482 726 424 524 419 b 325 785 308 582 341 682 b 1221 739 623 756 925 784 b 1331 727 1258 737 1295 729 b 1331 836 1409 730 1423 839 z "},"Ê":{"ha":1479,"x_min":0,"x_max":0,"o":"m 1331 836 b 334 896 1001 893 669 878 b 227 894 315 933 247 930 b 84 835 178 884 78 908 b 228 783 77 738 169 774 b 214 489 219 685 204 588 b 215 367 33 527 46 363 b 276 -42 258 239 153 52 b 1151 -70 508 -196 881 -58 b 1218 -14 1185 -67 1217 -41 b 935 24 1186 81 1015 10 b 497 1 789 -20 642 40 b 329 361 225 -39 355 196 b 566 338 407 338 485 331 b 801 305 643 307 718 293 b 980 366 858 310 972 290 b 920 417 981 395 957 420 b 339 482 726 424 524 419 b 325 785 308 582 341 682 b 1221 739 623 756 925 784 b 1331 727 1258 737 1295 729 b 1331 836 1409 730 1423 839 z "},"Ë":{"ha":1479,"x_min":0,"x_max":0,"o":"m 1331 836 b 334 896 1001 893 669 878 b 227 894 315 933 247 930 b 84 835 178 884 78 908 b 228 783 77 738 169 774 b 214 489 219 685 204 588 b 215 367 33 527 46 363 b 276 -42 258 239 153 52 b 1151 -70 508 -196 881 -58 b 1218 -14 1185 -67 1217 -41 b 935 24 1186 81 1015 10 b 497 1 789 -20 642 40 b 329 361 225 -39 355 196 b 566 338 407 338 485 331 b 801 305 643 307 718 293 b 980 366 858 310 972 290 b 920 417 981 395 957 420 b 339 482 726 424 524 419 b 325 785 308 582 341 682 b 1221 739 623 756 925 784 b 1331 727 1258 737 1295 729 b 1331 836 1409 730 1423 839 z "},"F":{"ha":1443,"x_min":0,"x_max":0,"o":"m 1359 898 b 1332 923 1356 911 1345 919 b 1226 930 1297 935 1261 931 b 661 914 1038 923 850 903 b 478 937 600 918 539 924 b 315 966 424 949 370 958 b 135 862 229 977 173 933 b 108 759 117 829 112 794 b 94 319 95 626 96 493 b 84 -29 91 230 99 100 b 86 -68 83 -42 84 -55 b 144 -106 90 -95 117 -112 b 218 -37 183 -98 209 -73 b 234 69 227 -2 233 33 b 236 263 237 134 235 199 b 241 331 236 286 237 309 b 270 351 243 345 256 353 b 394 330 311 345 352 334 b 695 306 494 320 594 311 b 979 242 793 300 887 275 b 1072 191 1013 229 1041 208 b 1168 208 1109 170 1148 179 b 1145 303 1187 237 1179 275 b 1034 363 1112 330 1074 349 b 750 427 943 397 848 420 b 411 459 637 436 524 446 b 270 493 363 465 317 481 b 229 551 239 500 228 521 b 236 755 232 619 231 687 b 356 844 242 858 255 867 b 537 810 416 829 476 817 b 1266 830 781 786 1024 808 b 1345 864 1296 832 1322 845 b 1359 898 1356 873 1362 885 z "},"G":{"ha":1699,"x_min":0,"x_max":0,"o":"m 1583 420 b 1123 528 1433 474 1271 474 b 744 567 994 531 874 627 b 963 444 599 466 895 420 b 1107 89 1077 363 992 150 b 283 281 839 -88 407 -57 b 193 638 300 410 207 521 b 638 821 301 745 494 775 b 1334 965 864 886 1098 971 b 1495 1014 1383 987 1476 957 b 1366 1093 1528 1098 1418 1089 b 457 876 1057 1065 757 966 b 109 509 275 826 -3 755 b 457 -73 197 281 200 53 b 1251 24 769 -188 961 -96 b 1583 420 1329 91 1726 323 z m 1209 132 b 1201 149 1208 134 1202 147 b 1109 409 1147 226 1146 324 b 1447 334 1227 404 1330 349 b 1209 132 1368 267 1284 203 z "},"H":{"ha":1543,"x_min":0,"x_max":0,"o":"m 1421 311 b 1410 393 1442 332 1431 371 b 1414 606 1429 465 1429 534 b 1338 846 1445 687 1492 1027 b 1299 419 1326 704 1328 559 b 488 456 1026 435 761 430 b 536 1037 491 649 515 841 b 472 1203 526 1091 554 1205 b 426 1155 444 1203 426 1191 b 361 461 418 920 409 692 b 360 348 -20 480 2 328 b 307 70 345 256 327 161 b 264 -70 232 63 260 -19 b 384 -71 276 -124 371 -123 b 454 348 387 73 470 202 b 1309 307 738 322 1021 309 b 1459 -25 1315 214 1299 -265 b 1421 311 1411 83 1434 196 z "},"I":{"ha":1458,"x_min":0,"x_max":0,"o":"m 1327 960 b 582 949 1077 948 839 980 b 83 899 475 957 152 1000 b 601 868 87 765 480 911 b 609 96 563 603 546 338 b 141 -32 528 88 -58 99 b 768 -56 355 -29 561 -39 b 975 -71 841 -52 909 -58 b 1150 -21 1026 -57 1129 -70 b 1110 19 1158 2 1145 18 b 692 51 978 50 826 18 b 700 221 748 101 707 173 b 704 860 676 431 681 644 b 1295 859 887 820 1104 884 b 1327 960 1375 865 1411 952 z "},"Ì":{"ha":1458,"x_min":0,"x_max":0,"o":"m 1327 960 b 582 949 1077 948 839 980 b 83 899 475 957 152 1000 b 601 868 87 765 480 911 b 609 96 563 603 546 338 b 141 -32 528 88 -58 99 b 768 -56 355 -29 561 -39 b 975 -71 841 -52 909 -58 b 1150 -21 1026 -57 1129 -70 b 1110 19 1158 2 1145 18 b 692 51 978 50 826 18 b 700 221 748 101 707 173 b 704 860 676 431 681 644 b 1295 859 887 820 1104 884 b 1327 960 1375 865 1411 952 z "},"Í":{"ha":1458,"x_min":0,"x_max":0,"o":"m 1327 960 b 582 949 1077 948 839 980 b 83 899 475 957 152 1000 b 601 868 87 765 480 911 b 609 96 563 603 546 338 b 141 -32 528 88 -58 99 b 768 -56 355 -29 561 -39 b 975 -71 841 -52 909 -58 b 1150 -21 1026 -57 1129 -70 b 1110 19 1158 2 1145 18 b 692 51 978 50 826 18 b 700 221 748 101 707 173 b 704 860 676 431 681 644 b 1295 859 887 820 1104 884 b 1327 960 1375 865 1411 952 z "},"Î":{"ha":1458,"x_min":0,"x_max":0,"o":"m 1327 960 b 582 949 1077 948 839 980 b 83 899 475 957 152 1000 b 601 868 87 765 480 911 b 609 96 563 603 546 338 b 141 -32 528 88 -58 99 b 768 -56 355 -29 561 -39 b 975 -71 841 -52 909 -58 b 1150 -21 1026 -57 1129 -70 b 1110 19 1158 2 1145 18 b 692 51 978 50 826 18 b 700 221 748 101 707 173 b 704 860 676 431 681 644 b 1295 859 887 820 1104 884 b 1327 960 1375 865 1411 952 z "},"Ï":{"ha":1458,"x_min":0,"x_max":0,"o":"m 1327 960 b 582 949 1077 948 839 980 b 83 899 475 957 152 1000 b 601 868 87 765 480 911 b 609 96 563 603 546 338 b 141 -32 528 88 -58 99 b 768 -56 355 -29 561 -39 b 975 -71 841 -52 909 -58 b 1150 -21 1026 -57 1129 -70 b 1110 19 1158 2 1145 18 b 692 51 978 50 826 18 b 700 221 748 101 707 173 b 704 860 676 431 681 644 b 1295 859 887 820 1104 884 b 1327 960 1375 865 1411 952 z "},"J":{"ha":1361,"x_min":0,"x_max":0,"o":"m 1249 778 b 1089 1273 1253 855 1217 1587 b 1096 1144 1096 1228 1089 1189 b 144 1068 778 1097 459 1124 b 469 999 -85 939 404 995 b 1125 1029 691 990 906 1024 b 1022 78 1155 717 1237 340 b 366 312 830 -49 372 44 b 287 356 360 348 315 364 b 516 -37 129 248 399 5 b 1249 778 1143 -278 1361 244 z "},"K":{"ha":1218,"x_min":0,"x_max":0,"o":"m 1026 174 b 414 567 851 345 642 478 b 1021 848 616 659 791 835 b 1089 979 1097 770 1192 973 b 296 637 789 961 563 751 b 219 937 289 804 210 769 b 128 1083 195 980 191 1096 b 84 1006 102 1075 78 1040 b 194 617 156 818 145 810 b 207 486 69 574 88 516 b 154 51 265 345 200 187 b 262 -167 193 -48 114 -182 b 264 23 364 -138 273 -39 b 329 461 248 234 345 257 b 612 342 441 471 528 407 b 1021 18 782 291 874 113 b 1097 95 1074 -43 1143 43 b 1026 174 1074 121 1051 149 z "},"L":{"ha":1665,"x_min":0,"x_max":0,"o":"m 1533 92 b 1466 90 1511 94 1488 93 b 1262 86 1398 80 1329 78 b 1038 93 1187 94 1113 96 b 592 127 888 87 740 105 b 331 203 502 141 415 169 b 303 270 292 219 286 231 b 338 450 328 327 336 388 b 359 760 342 554 341 658 b 357 808 362 776 361 793 b 308 849 351 833 333 846 b 260 823 286 852 272 839 b 231 731 241 795 235 763 b 222 488 220 650 223 569 b 112 259 220 398 218 302 b 98 246 107 256 102 251 b 109 162 75 223 80 179 b 135 150 117 157 126 153 b 363 66 212 123 285 88 b 888 -24 535 16 709 -22 b 1395 -25 1057 -26 1226 -25 b 1511 -17 1437 -24 1479 -19 b 1548 -5 1530 -11 1540 -9 b 1580 50 1570 4 1584 29 b 1533 93 1576 71 1557 91 z "},"M":{"ha":2219,"x_min":0,"x_max":0,"o":"m 1911 323 b 1523 1012 1801 566 1669 787 b 1233 379 1396 1179 1255 463 b 558 683 1007 476 777 561 b 196 825 456 721 288 968 b 154 505 212 712 153 617 b 83 81 137 360 102 225 b 303 717 211 -256 272 643 b 1261 247 603 523 928 377 b 1369 519 1365 255 1345 441 b 1485 865 1425 628 1442 750 b 2039 -126 1700 547 1851 202 b 1911 323 2294 -284 1965 275 z "},"N":{"ha":2182,"x_min":0,"x_max":0,"o":"m 2037 1152 b 1751 210 1636 1059 1839 501 b 466 803 1312 376 941 724 b 202 813 383 810 242 930 b 201 171 152 740 -38 -75 b 298 727 183 361 253 545 b 1788 73 850 654 1283 264 b 1865 228 1888 53 1870 166 b 1898 750 1870 409 1905 568 b 2037 1037 1894 855 1911 1018 b 2037 1152 2126 1035 2113 1147 z "},"Ñ":{"ha":2182,"x_min":0,"x_max":0,"o":"m 2037 1152 b 1751 210 1636 1059 1839 501 b 466 803 1312 376 941 724 b 202 813 383 810 242 930 b 201 171 152 740 -38 -75 b 298 727 183 361 253 545 b 1788 73 850 654 1283 264 b 1865 228 1888 53 1870 166 b 1898 750 1870 409 1905 568 b 2037 1037 1894 855 1911 1018 b 2037 1152 2126 1035 2113 1147 z "},"O":{"ha":1232,"x_min":0,"x_max":0,"o":"m 745 907 b 144 748 554 996 262 888 b 121 635 117 719 37 648 b 177 660 147 631 165 635 b 327 788 210 711 265 756 b 823 190 876 944 1267 512 b 317 583 286 -200 170 235 b 294 728 328 631 380 706 b 175 515 197 717 220 573 b 149 173 183 372 103 315 b 835 81 202 -151 608 -136 b 746 906 1285 310 1248 750 z "},"Ò":{"ha":1232,"x_min":0,"x_max":0,"o":"m 745 907 b 144 748 554 996 262 888 b 121 635 117 719 37 648 b 177 660 147 631 165 635 b 327 788 210 711 265 756 b 823 190 876 944 1267 512 b 317 583 286 -200 170 235 b 294 728 328 631 380 706 b 175 515 197 717 220 573 b 149 173 183 372 103 315 b 835 81 202 -151 608 -136 b 746 906 1285 310 1248 750 z "},"Ó":{"ha":1232,"x_min":0,"x_max":0,"o":"m 745 907 b 144 748 554 996 262 888 b 121 635 117 719 37 648 b 177 660 147 631 165 635 b 327 788 210 711 265 756 b 823 190 876 944 1267 512 b 317 583 286 -200 170 235 b 294 728 328 631 380 706 b 175 515 197 717 220 573 b 149 173 183 372 103 315 b 835 81 202 -151 608 -136 b 746 906 1285 310 1248 750 z "},"Ô":{"ha":1232,"x_min":0,"x_max":0,"o":"m 745 907 b 144 748 554 996 262 888 b 121 635 117 719 37 648 b 177 660 147 631 165 635 b 327 788 210 711 265 756 b 823 190 876 944 1267 512 b 317 583 286 -200 170 235 b 294 728 328 631 380 706 b 175 515 197 717 220 573 b 149 173 183 372 103 315 b 835 81 202 -151 608 -136 b 746 906 1285 310 1248 750 z "},"Õ":{"ha":1232,"x_min":0,"x_max":0,"o":"m 745 907 b 144 748 554 996 262 888 b 121 635 117 719 37 648 b 177 660 147 631 165 635 b 327 788 210 711 265 756 b 823 190 876 944 1267 512 b 317 583 286 -200 170 235 b 294 728 328 631 380 706 b 175 515 197 717 220 573 b 149 173 183 372 103 315 b 835 81 202 -151 608 -136 b 746 906 1285 310 1248 750 z "},"Ö":{"ha":1232,"x_min":0,"x_max":0,"o":"m 745 907 b 144 748 554 996 262 888 b 121 635 117 719 37 648 b 177 660 147 631 165 635 b 327 788 210 711 265 756 b 823 190 876 944 1267 512 b 317 583 286 -200 170 235 b 294 728 328 631 380 706 b 175 515 197 717 220 573 b 149 173 183 372 103 315 b 835 81 202 -151 608 -136 b 746 906 1285 310 1248 750 z "},"Ø":{"ha":1232,"x_min":0,"x_max":0,"o":"m 745 907 b 144 748 554 996 262 888 b 121 635 117 719 37 648 b 177 660 147 631 165 635 b 327 788 210 711 265 756 b 823 190 876 944 1267 512 b 317 583 286 -200 170 235 b 294 728 328 631 380 706 b 175 515 197 717 220 573 b 149 173 183 372 103 315 b 835 81 202 -151 608 -136 b 746 906 1285 310 1248 750 z "},"P":{"ha":1525,"x_min":0,"x_max":0,"o":"m 1369 776 b 347 969 1091 1004 687 977 b 154 1112 303 1027 237 1230 b 225 958 96 1051 220 1022 b 251 838 8 974 59 781 b 261 648 270 772 268 714 b 285 453 285 584 295 522 b 152 419 239 454 152 492 b 283 330 141 347 234 346 b 300 -26 325 168 252 135 b 389 63 360 -129 505 12 b 397 339 391 200 398 200 b 1298 479 699 293 1011 372 b 1369 776 1467 543 1481 664 z m 1317 585 b 398 441 1022 488 711 389 b 397 625 378 504 380 562 b 368 859 370 698 363 779 b 1096 777 609 856 878 889 b 1317 585 1166 765 1430 672 z "},"Q":{"ha":1515,"x_min":0,"x_max":0,"o":"m 1071 -28 b 1417 373 1251 3 1490 167 b 473 756 1357 855 829 780 b 89 303 300 911 42 471 b 714 -88 123 -4 449 -93 b 967 -48 798 -76 882 -50 b 1313 -326 1013 -211 1219 -199 b 1071 -28 1614 -288 1128 -102 z m 905 45 b 209 310 641 -3 283 -24 b 1140 623 62 756 894 687 b 1008 49 1459 516 1331 43 b 905 45 955 296 816 333 z "},"R":{"ha":1453,"x_min":0,"x_max":0,"o":"m 1344 14 b 647 388 1113 143 888 275 b 866 495 737 420 774 463 b 1308 739 1025 557 1201 614 b 103 792 1455 997 -109 1067 b 144 601 148 734 152 669 b 186 456 181 539 194 524 b 199 380 166 435 172 394 b 235 -14 202 246 275 119 b 363 -21 236 -70 360 -77 b 327 328 324 94 374 211 b 512 341 385 317 459 311 b 1186 0 743 237 948 97 b 1359 -53 1236 -24 1308 -110 b 1344 14 1375 -33 1375 -3 z m 507 426 b 315 476 445 450 383 471 b 222 803 263 596 264 681 b 994 822 470 871 739 862 b 1173 763 1062 819 1125 809 b 778 562 1051 685 915 620 b 506 426 681 512 613 456 z "},"S":{"ha":1446,"x_min":0,"x_max":0,"o":"m 1344 143 b 1286 207 1328 167 1311 191 b 1062 343 1213 255 1149 318 b 1020 367 1047 347 1033 358 b 836 454 964 406 902 433 b 673 515 781 472 726 493 b 459 609 601 545 530 577 b 307 694 405 632 352 656 b 294 718 300 699 295 709 b 312 736 292 730 303 734 b 370 748 331 741 351 744 b 773 816 504 770 639 792 b 995 813 848 830 921 829 b 1111 797 1033 805 1072 798 b 1258 840 1163 796 1215 806 b 1272 901 1276 854 1281 880 b 1217 933 1262 923 1241 936 b 1198 929 1211 932 1204 932 b 1007 920 1135 899 1072 908 b 707 917 907 939 807 939 b 506 882 641 903 573 894 b 506 882 506 882 506 882 b 227 835 413 866 320 851 b 118 795 189 828 151 817 b 104 697 78 770 72 733 b 162 646 121 678 143 663 b 514 460 266 558 397 523 b 674 389 565 432 618 405 b 862 313 740 371 800 341 b 951 274 892 300 921 287 b 1131 177 1014 247 1075 216 b 1211 99 1161 156 1202 143 b 1096 78 1179 56 1135 76 b 708 105 966 86 837 102 b 190 29 531 110 358 81 b 119 -3 165 21 142 10 b 94 -51 101 -12 90 -28 b 143 -89 97 -71 117 -86 b 200 -79 164 -92 182 -84 b 544 -13 313 -48 428 -26 b 884 -22 658 0 771 -2 b 1194 -29 987 -40 1091 -36 b 1314 10 1237 -26 1277 -14 b 1344 143 1366 43 1377 89 z "},"T":{"ha":1726,"x_min":0,"x_max":0,"o":"m 1627 772 b 1580 806 1613 786 1597 799 b 1469 842 1544 821 1507 835 b 1163 894 1368 861 1265 878 b 655 857 991 922 820 921 b 617 846 643 853 630 850 b 396 829 545 823 471 821 b 181 889 321 837 252 865 b 107 908 157 897 134 913 b 85 892 99 906 89 900 b 87 866 82 885 83 873 b 140 825 99 845 120 834 b 290 755 190 801 243 783 b 467 713 346 721 405 714 b 583 723 506 713 545 715 b 695 670 637 735 669 712 b 757 527 723 625 744 578 b 802 338 774 465 789 402 b 968 70 825 229 884 142 b 1055 59 1002 41 1035 39 b 1042 152 1080 83 1080 122 b 903 402 961 217 929 306 b 788 741 872 517 848 635 b 806 779 779 759 789 773 b 1002 796 866 801 928 796 b 1124 780 1034 792 1080 789 b 1569 682 1273 751 1427 742 b 1635 710 1594 671 1622 686 b 1627 772 1646 730 1644 756 z "},"U":{"ha":1376,"x_min":0,"x_max":0,"o":"m 1174 955 b 1124 1006 1178 992 1153 1007 b 1095 638 991 981 1092 735 b 1150 184 1106 480 1262 335 b 862 -61 1097 55 968 15 b 465 -175 763 -169 605 -197 b 213 310 325 -56 190 114 b 220 726 171 447 185 588 b 161 769 223 763 190 770 b 86 408 28 743 112 512 b 709 -262 65 78 313 -431 b 1264 149 921 -201 1158 -52 b 1174 955 1377 408 1112 682 z "},"Ù":{"ha":1376,"x_min":0,"x_max":0,"o":"m 1174 955 b 1124 1006 1178 992 1153 1007 b 1095 638 991 981 1092 735 b 1150 184 1106 480 1262 335 b 862 -61 1097 55 968 15 b 465 -175 763 -169 605 -197 b 213 310 325 -56 190 114 b 220 726 171 447 185 588 b 161 769 223 763 190 770 b 86 408 28 743 112 512 b 709 -262 65 78 313 -431 b 1264 149 921 -201 1158 -52 b 1174 955 1377 408 1112 682 z "},"Ú":{"ha":1376,"x_min":0,"x_max":0,"o":"m 1174 955 b 1124 1006 1178 992 1153 1007 b 1095 638 991 981 1092 735 b 1150 184 1106 480 1262 335 b 862 -61 1097 55 968 15 b 465 -175 763 -169 605 -197 b 213 310 325 -56 190 114 b 220 726 171 447 185 588 b 161 769 223 763 190 770 b 86 408 28 743 112 512 b 709 -262 65 78 313 -431 b 1264 149 921 -201 1158 -52 b 1174 955 1377 408 1112 682 z "},"Û":{"ha":1376,"x_min":0,"x_max":0,"o":"m 1174 955 b 1124 1006 1178 992 1153 1007 b 1095 638 991 981 1092 735 b 1150 184 1106 480 1262 335 b 862 -61 1097 55 968 15 b 465 -175 763 -169 605 -197 b 213 310 325 -56 190 114 b 220 726 171 447 185 588 b 161 769 223 763 190 770 b 86 408 28 743 112 512 b 709 -262 65 78 313 -431 b 1264 149 921 -201 1158 -52 b 1174 955 1377 408 1112 682 z "},"Ü":{"ha":1376,"x_min":0,"x_max":0,"o":"m 1174 955 b 1124 1006 1178 992 1153 1007 b 1095 638 991 981 1092 735 b 1150 184 1106 480 1262 335 b 862 -61 1097 55 968 15 b 465 -175 763 -169 605 -197 b 213 310 325 -56 190 114 b 220 726 171 447 185 588 b 161 769 223 763 190 770 b 86 408 28 743 112 512 b 709 -262 65 78 313 -431 b 1264 149 921 -201 1158 -52 b 1174 955 1377 408 1112 682 z "},"V":{"ha":1354,"x_min":0,"x_max":0,"o":"m 1164 974 b 509 -94 1045 566 760 234 b 318 732 345 144 492 491 b 107 885 291 806 192 934 b 175 735 36 824 145 781 b 428 -172 400 474 238 100 b 320 -335 386 -216 253 -260 b 496 -232 396 -400 449 -276 b 589 -158 547 -251 628 -216 b 995 353 736 -1 860 182 b 1164 974 1023 436 1468 1154 z "},"W":{"ha":2419,"x_min":0,"x_max":0,"o":"m 2232 1066 b 1916 -25 2033 716 2324 406 b 1822 -125 1900 -42 1845 -125 b 1415 336 1674 8 1520 159 b 812 129 1049 743 1139 538 b 183 860 557 321 342 581 b 772 14 -208 1008 676 33 b 859 -236 761 -75 790 -173 b 975 -142 901 -239 975 -189 b 892 -84 975 -94 925 -67 b 1157 435 822 119 1102 259 b 1821 -238 1396 233 1542 -87 b 2080 10 1933 -202 2021 -88 b 2269 842 2232 231 2322 573 b 2321 979 2269 892 2287 938 b 2232 1066 2366 1040 2293 1132 z "},"X":{"ha":1446,"x_min":0,"x_max":0,"o":"m 1343 -17 b 839 369 1182 117 1001 232 b 835 373 837 371 836 372 b 838 375 836 373 837 373 b 1168 641 951 460 1045 572 b 1359 849 1213 715 1376 758 b 1292 864 1346 875 1323 885 b 977 632 1175 808 1068 724 b 828 514 924 604 844 564 b 180 978 685 744 415 859 b 118 868 100 1014 44 912 b 242 840 156 852 205 858 b 717 444 399 710 632 648 b 531 147 748 313 590 240 b 229 -55 429 82 340 -3 b 284 -149 150 -94 215 -183 b 782 267 487 -64 654 89 b 1119 11 879 183 1020 110 b 1351 -84 1182 -18 1297 -170 b 1343 -17 1363 -60 1370 -37 z "},"Y":{"ha":1572,"x_min":0,"x_max":0,"o":"m 1418 815 b 1398 826 1413 814 1402 827 l 1401 814 b 622 486 1148 691 881 592 b 83 817 534 590 193 1097 b 157 794 90 789 122 780 b 314 688 211 804 273 715 b 532 434 408 621 441 503 b 535 -104 416 288 541 67 b 607 -257 539 -167 508 -266 b 616 257 730 -254 582 151 b 615 366 608 293 574 337 b 1178 555 744 302 1062 480 b 1465 708 1281 591 1367 660 b 1418 815 1516 740 1478 841 z "},"Ý":{"ha":1572,"x_min":0,"x_max":0,"o":"m 1418 815 b 1398 826 1413 814 1402 827 l 1401 814 b 622 486 1148 691 881 592 b 83 817 534 590 193 1097 b 157 794 90 789 122 780 b 314 688 211 804 273 715 b 532 434 408 621 441 503 b 535 -104 416 288 541 67 b 607 -257 539 -167 508 -266 b 616 257 730 -254 582 151 b 615 366 608 293 574 337 b 1178 555 744 302 1062 480 b 1465 708 1281 591 1367 660 b 1418 815 1516 740 1478 841 z "},"Ÿ":{"ha":1572,"x_min":0,"x_max":0,"o":"m 1418 815 b 1398 826 1413 814 1402 827 l 1401 814 b 622 486 1148 691 881 592 b 83 817 534 590 193 1097 b 157 794 90 789 122 780 b 314 688 211 804 273 715 b 532 434 408 621 441 503 b 535 -104 416 288 541 67 b 607 -257 539 -167 508 -266 b 616 257 730 -254 582 151 b 615 366 608 293 574 337 b 1178 555 744 302 1062 480 b 1465 708 1281 591 1367 660 b 1418 815 1516 740 1478 841 z "},"Z":{"ha":1499,"x_min":0,"x_max":0,"o":"m 1368 -249 b 377 -110 1041 -175 707 -175 b 789 388 511 56 677 199 b 945 728 849 444 1120 688 b 158 572 854 754 -202 756 b 846 627 382 640 614 621 b 365 27 693 422 525 226 b 448 -239 127 -103 226 -206 b 750 -285 552 -224 654 -243 b 1061 -310 854 -272 958 -289 b 1414 -303 1128 -326 1423 -417 b 1368 -249 1412 -276 1402 -253 z "},"a":{"ha":1664,"x_min":0,"x_max":0,"o":"m 1573 -126 b 1549 -96 1566 -115 1558 -105 b 1446 45 1505 -56 1477 -4 b 1304 278 1398 122 1354 202 b 1160 518 1253 356 1217 443 b 920 861 1076 629 1000 746 b 844 889 901 887 876 897 b 800 875 831 885 819 881 b 612 767 736 850 671 814 b 425 612 549 717 486 665 b 325 556 395 585 349 587 b 269 455 301 526 297 484 b 182 349 237 422 212 384 b 99 207 147 306 124 256 b 86 122 86 180 80 152 b 117 89 89 105 100 93 b 153 100 131 86 145 89 b 183 149 165 115 175 132 b 230 222 196 175 210 200 b 356 370 273 271 314 321 b 393 416 369 385 380 401 b 462 434 412 437 434 446 b 516 412 480 426 499 420 b 782 369 601 375 689 361 b 1016 374 860 376 938 372 b 1150 298 1076 376 1118 353 b 1356 -32 1215 186 1286 77 b 1428 -136 1379 -68 1404 -102 b 1502 -199 1447 -164 1473 -183 b 1564 -189 1522 -210 1548 -205 b 1573 -126 1580 -172 1584 -145 z m 991 503 b 983 499 989 502 986 499 b 694 489 886 496 790 477 b 674 492 687 490 681 491 b 556 545 632 504 583 498 b 629 632 566 586 601 607 b 794 750 680 677 732 721 b 874 728 834 770 848 765 b 984 569 910 675 947 622 b 1004 533 992 556 999 541 b 991 503 1004 516 1001 508 z "},"à":{"ha":1664,"x_min":0,"x_max":0,"o":"m 1573 -126 b 1549 -96 1566 -115 1558 -105 b 1446 45 1505 -56 1477 -4 b 1304 278 1398 122 1354 202 b 1160 518 1253 356 1217 443 b 920 861 1076 629 1000 746 b 844 889 901 887 876 897 b 800 875 831 885 819 881 b 612 767 736 850 671 814 b 425 612 549 717 486 665 b 325 556 395 585 349 587 b 269 455 301 526 297 484 b 182 349 237 422 212 384 b 99 207 147 306 124 256 b 86 122 86 180 80 152 b 117 89 89 105 100 93 b 153 100 131 86 145 89 b 183 149 165 115 175 132 b 230 222 196 175 210 200 b 356 370 273 271 314 321 b 393 416 369 385 380 401 b 462 434 412 437 434 446 b 516 412 480 426 499 420 b 782 369 601 375 689 361 b 1016 374 860 376 938 372 b 1150 298 1076 376 1118 353 b 1356 -32 1215 186 1286 77 b 1428 -136 1379 -68 1404 -102 b 1502 -199 1447 -164 1473 -183 b 1564 -189 1522 -210 1548 -205 b 1573 -126 1580 -172 1584 -145 z m 991 503 b 983 499 989 502 986 499 b 694 489 886 496 790 477 b 674 492 687 490 681 491 b 556 545 632 504 583 498 b 629 632 566 586 601 607 b 794 750 680 677 732 721 b 874 728 834 770 848 765 b 984 569 910 675 947 622 b 1004 533 992 556 999 541 b 991 503 1004 516 1001 508 z "},"á":{"ha":1664,"x_min":0,"x_max":0,"o":"m 1573 -126 b 1549 -96 1566 -115 1558 -105 b 1446 45 1505 -56 1477 -4 b 1304 278 1398 122 1354 202 b 1160 518 1253 356 1217 443 b 920 861 1076 629 1000 746 b 844 889 901 887 876 897 b 800 875 831 885 819 881 b 612 767 736 850 671 814 b 425 612 549 717 486 665 b 325 556 395 585 349 587 b 269 455 301 526 297 484 b 182 349 237 422 212 384 b 99 207 147 306 124 256 b 86 122 86 180 80 152 b 117 89 89 105 100 93 b 153 100 131 86 145 89 b 183 149 165 115 175 132 b 230 222 196 175 210 200 b 356 370 273 271 314 321 b 393 416 369 385 380 401 b 462 434 412 437 434 446 b 516 412 480 426 499 420 b 782 369 601 375 689 361 b 1016 374 860 376 938 372 b 1150 298 1076 376 1118 353 b 1356 -32 1215 186 1286 77 b 1428 -136 1379 -68 1404 -102 b 1502 -199 1447 -164 1473 -183 b 1564 -189 1522 -210 1548 -205 b 1573 -126 1580 -172 1584 -145 z m 991 503 b 983 499 989 502 986 499 b 694 489 886 496 790 477 b 674 492 687 490 681 491 b 556 545 632 504 583 498 b 629 632 566 586 601 607 b 794 750 680 677 732 721 b 874 728 834 770 848 765 b 984 569 910 675 947 622 b 1004 533 992 556 999 541 b 991 503 1004 516 1001 508 z "},"â":{"ha":1664,"x_min":0,"x_max":0,"o":"m 1573 -126 b 1549 -96 1566 -115 1558 -105 b 1446 45 1505 -56 1477 -4 b 1304 278 1398 122 1354 202 b 1160 518 1253 356 1217 443 b 920 861 1076 629 1000 746 b 844 889 901 887 876 897 b 800 875 831 885 819 881 b 612 767 736 850 671 814 b 425 612 549 717 486 665 b 325 556 395 585 349 587 b 269 455 301 526 297 484 b 182 349 237 422 212 384 b 99 207 147 306 124 256 b 86 122 86 180 80 152 b 117 89 89 105 100 93 b 153 100 131 86 145 89 b 183 149 165 115 175 132 b 230 222 196 175 210 200 b 356 370 273 271 314 321 b 393 416 369 385 380 401 b 462 434 412 437 434 446 b 516 412 480 426 499 420 b 782 369 601 375 689 361 b 1016 374 860 376 938 372 b 1150 298 1076 376 1118 353 b 1356 -32 1215 186 1286 77 b 1428 -136 1379 -68 1404 -102 b 1502 -199 1447 -164 1473 -183 b 1564 -189 1522 -210 1548 -205 b 1573 -126 1580 -172 1584 -145 z m 991 503 b 983 499 989 502 986 499 b 694 489 886 496 790 477 b 674 492 687 490 681 491 b 556 545 632 504 583 498 b 629 632 566 586 601 607 b 794 750 680 677 732 721 b 874 728 834 770 848 765 b 984 569 910 675 947 622 b 1004 533 992 556 999 541 b 991 503 1004 516 1001 508 z "},"ã":{"ha":1664,"x_min":0,"x_max":0,"o":"m 1573 -126 b 1549 -96 1566 -115 1558 -105 b 1446 45 1505 -56 1477 -4 b 1304 278 1398 122 1354 202 b 1160 518 1253 356 1217 443 b 920 861 1076 629 1000 746 b 844 889 901 887 876 897 b 800 875 831 885 819 881 b 612 767 736 850 671 814 b 425 612 549 717 486 665 b 325 556 395 585 349 587 b 269 455 301 526 297 484 b 182 349 237 422 212 384 b 99 207 147 306 124 256 b 86 122 86 180 80 152 b 117 89 89 105 100 93 b 153 100 131 86 145 89 b 183 149 165 115 175 132 b 230 222 196 175 210 200 b 356 370 273 271 314 321 b 393 416 369 385 380 401 b 462 434 412 437 434 446 b 516 412 480 426 499 420 b 782 369 601 375 689 361 b 1016 374 860 376 938 372 b 1150 298 1076 376 1118 353 b 1356 -32 1215 186 1286 77 b 1428 -136 1379 -68 1404 -102 b 1502 -199 1447 -164 1473 -183 b 1564 -189 1522 -210 1548 -205 b 1573 -126 1580 -172 1584 -145 z m 991 503 b 983 499 989 502 986 499 b 694 489 886 496 790 477 b 674 492 687 490 681 491 b 556 545 632 504 583 498 b 629 632 566 586 601 607 b 794 750 680 677 732 721 b 874 728 834 770 848 765 b 984 569 910 675 947 622 b 1004 533 992 556 999 541 b 991 503 1004 516 1001 508 z "},"ä":{"ha":1664,"x_min":0,"x_max":0,"o":"m 1573 -126 b 1549 -96 1566 -115 1558 -105 b 1446 45 1505 -56 1477 -4 b 1304 278 1398 122 1354 202 b 1160 518 1253 356 1217 443 b 920 861 1076 629 1000 746 b 844 889 901 887 876 897 b 800 875 831 885 819 881 b 612 767 736 850 671 814 b 425 612 549 717 486 665 b 325 556 395 585 349 587 b 269 455 301 526 297 484 b 182 349 237 422 212 384 b 99 207 147 306 124 256 b 86 122 86 180 80 152 b 117 89 89 105 100 93 b 153 100 131 86 145 89 b 183 149 165 115 175 132 b 230 222 196 175 210 200 b 356 370 273 271 314 321 b 393 416 369 385 380 401 b 462 434 412 437 434 446 b 516 412 480 426 499 420 b 782 369 601 375 689 361 b 1016 374 860 376 938 372 b 1150 298 1076 376 1118 353 b 1356 -32 1215 186 1286 77 b 1428 -136 1379 -68 1404 -102 b 1502 -199 1447 -164 1473 -183 b 1564 -189 1522 -210 1548 -205 b 1573 -126 1580 -172 1584 -145 z m 991 503 b 983 499 989 502 986 499 b 694 489 886 496 790 477 b 674 492 687 490 681 491 b 556 545 632 504 583 498 b 629 632 566 586 601 607 b 794 750 680 677 732 721 b 874 728 834 770 848 765 b 984 569 910 675 947 622 b 1004 533 992 556 999 541 b 991 503 1004 516 1001 508 z "},"å":{"ha":1664,"x_min":0,"x_max":0,"o":"m 1573 -126 b 1549 -96 1566 -115 1558 -105 b 1446 45 1505 -56 1477 -4 b 1304 278 1398 122 1354 202 b 1160 518 1253 356 1217 443 b 920 861 1076 629 1000 746 b 844 889 901 887 876 897 b 800 875 831 885 819 881 b 612 767 736 850 671 814 b 425 612 549 717 486 665 b 325 556 395 585 349 587 b 269 455 301 526 297 484 b 182 349 237 422 212 384 b 99 207 147 306 124 256 b 86 122 86 180 80 152 b 117 89 89 105 100 93 b 153 100 131 86 145 89 b 183 149 165 115 175 132 b 230 222 196 175 210 200 b 356 370 273 271 314 321 b 393 416 369 385 380 401 b 462 434 412 437 434 446 b 516 412 480 426 499 420 b 782 369 601 375 689 361 b 1016 374 860 376 938 372 b 1150 298 1076 376 1118 353 b 1356 -32 1215 186 1286 77 b 1428 -136 1379 -68 1404 -102 b 1502 -199 1447 -164 1473 -183 b 1564 -189 1522 -210 1548 -205 b 1573 -126 1580 -172 1584 -145 z m 991 503 b 983 499 989 502 986 499 b 694 489 886 496 790 477 b 674 492 687 490 681 491 b 556 545 632 504 583 498 b 629 632 566 586 601 607 b 794 750 680 677 732 721 b 874 728 834 770 848 765 b 984 569 910 675 947 622 b 1004 533 992 556 999 541 b 991 503 1004 516 1001 508 z "},"b":{"ha":1151,"x_min":0,"x_max":0,"o":"m 938 214 b 496 377 797 305 661 355 b 994 660 669 463 837 550 b 229 986 1337 929 379 1042 b 83 924 173 983 80 1014 b 240 879 82 828 182 879 b 291 399 251 716 248 560 b 312 283 201 398 236 246 b 1012 -18 362 -45 746 -93 b 938 214 1099 73 1063 185 z m 386 441 b 345 889 362 589 346 739 b 950 775 550 877 755 837 b 927 750 973 762 945 761 b 744 638 876 693 816 660 b 386 441 631 551 504 514 z m 434 275 b 892 132 596 249 743 197 b 950 82 913 118 934 101 b 434 275 786 4 477 57 z "},"c":{"ha":1254,"x_min":0,"x_max":0,"o":"m 1076 129 b 484 7 876 101 687 29 b 621 809 -72 175 482 809 b 968 503 759 809 870 648 b 1111 557 1015 443 1143 502 b 712 890 985 707 913 778 b 236 575 462 963 348 682 b 83 239 96 472 111 376 b 558 -75 86 83 319 -88 b 1076 129 664 -69 1435 46 z "},"ç":{"ha":1254,"x_min":0,"x_max":0,"o":"m 1076 129 b 484 7 876 101 687 29 b 621 809 -72 175 482 809 b 968 503 759 809 870 648 b 1111 557 1015 443 1143 502 b 712 890 985 707 913 778 b 236 575 462 963 348 682 b 83 239 96 472 111 376 b 558 -75 86 83 319 -88 b 1076 129 664 -69 1435 46 z "},"d":{"ha":1597,"x_min":0,"x_max":0,"o":"m 1285 670 b 393 786 1017 806 671 759 b 313 975 376 847 431 952 b 279 797 228 987 291 845 b 293 688 28 819 4 704 b 426 30 344 467 368 252 b 126 -3 331 0 214 37 b 573 -46 -62 -136 516 -73 b 1285 671 895 -44 1983 317 z m 1388 371 b 529 40 1181 172 841 110 b 452 505 484 197 476 351 b 421 683 421 569 408 625 b 1388 371 564 684 1573 597 z "},"e":{"ha":1332,"x_min":0,"x_max":0,"o":"m 1186 132 b 264 32 883 103 565 -45 b 278 332 238 125 258 239 b 802 273 446 270 627 272 b 802 390 858 276 868 395 b 283 456 627 389 444 382 b 302 927 297 612 303 768 b 944 790 512 868 734 852 b 977 914 999 781 1038 901 b 123 1059 683 923 408 1055 b 147 949 61 1035 74 934 b 183 942 161 948 198 965 b 138 44 195 647 152 343 b 538 -93 156 -147 408 -76 b 1215 26 765 -61 988 -8 b 1186 132 1273 40 1249 151 z "},"è":{"ha":1332,"x_min":0,"x_max":0,"o":"m 1186 132 b 264 32 883 103 565 -45 b 278 332 238 125 258 239 b 802 273 446 270 627 272 b 802 390 858 276 868 395 b 283 456 627 389 444 382 b 302 927 297 612 303 768 b 944 790 512 868 734 852 b 977 914 999 781 1038 901 b 123 1059 683 923 408 1055 b 147 949 61 1035 74 934 b 183 942 161 948 198 965 b 138 44 195 647 152 343 b 538 -93 156 -147 408 -76 b 1215 26 765 -61 988 -8 b 1186 132 1273 40 1249 151 z "},"é":{"ha":1332,"x_min":0,"x_max":0,"o":"m 1186 132 b 264 32 883 103 565 -45 b 278 332 238 125 258 239 b 802 273 446 270 627 272 b 802 390 858 276 868 395 b 283 456 627 389 444 382 b 302 927 297 612 303 768 b 944 790 512 868 734 852 b 977 914 999 781 1038 901 b 123 1059 683 923 408 1055 b 147 949 61 1035 74 934 b 183 942 161 948 198 965 b 138 44 195 647 152 343 b 538 -93 156 -147 408 -76 b 1215 26 765 -61 988 -8 b 1186 132 1273 40 1249 151 z "},"ê":{"ha":1332,"x_min":0,"x_max":0,"o":"m 1186 132 b 264 32 883 103 565 -45 b 278 332 238 125 258 239 b 802 273 446 270 627 272 b 802 390 858 276 868 395 b 283 456 627 389 444 382 b 302 927 297 612 303 768 b 944 790 512 868 734 852 b 977 914 999 781 1038 901 b 123 1059 683 923 408 1055 b 147 949 61 1035 74 934 b 183 942 161 948 198 965 b 138 44 195 647 152 343 b 538 -93 156 -147 408 -76 b 1215 26 765 -61 988 -8 b 1186 132 1273 40 1249 151 z "},"ë":{"ha":1332,"x_min":0,"x_max":0,"o":"m 1186 132 b 264 32 883 103 565 -45 b 278 332 238 125 258 239 b 802 273 446 270 627 272 b 802 390 858 276 868 395 b 283 456 627 389 444 382 b 302 927 297 612 303 768 b 944 790 512 868 734 852 b 977 914 999 781 1038 901 b 123 1059 683 923 408 1055 b 147 949 61 1035 74 934 b 183 942 161 948 198 965 b 138 44 195 647 152 343 b 538 -93 156 -147 408 -76 b 1215 26 765 -61 988 -8 b 1186 132 1273 40 1249 151 z "},"f":{"ha":1451,"x_min":0,"x_max":0,"o":"m 1314 1070 b 143 978 923 1046 540 971 b 114 803 44 963 93 862 b 211 401 112 657 186 538 b 251 300 126 378 174 244 b 465 -81 285 227 359 -150 b 351 306 542 7 373 199 b 892 319 528 290 712 298 b 1040 376 952 315 1049 276 b 886 415 1048 467 938 414 b 316 399 700 450 507 397 b 212 865 254 549 255 711 b 871 931 432 893 650 892 b 1314 1070 952 927 1544 911 z "},"g":{"ha":1788,"x_min":0,"x_max":0,"o":"m 1636 568 b 714 449 1328 555 1006 537 b 609 436 680 441 642 445 b 640 322 538 411 558 298 b 984 398 763 322 860 403 b 1460 457 1132 437 1295 426 b 1122 83 1397 178 1510 -42 b 810 118 1016 92 911 79 b 808 786 -260 100 294 396 b 1186 947 945 817 1039 930 b 1152 1065 1268 976 1235 1087 b 856 914 1052 1017 943 987 b 231 466 621 818 407 648 b 168 80 81 399 20 181 b 804 -1 368 8 596 50 b 1556 461 1308 -31 1571 -232 b 1636 569 1663 405 1781 529 z "},"h":{"ha":1708,"x_min":0,"x_max":0,"o":"m 1580 130 b 1343 1142 1534 472 1482 824 b 1247 1111 1317 1196 1250 1162 b 1034 659 1235 942 1292 650 b 293 622 786 650 540 624 b 274 989 278 747 315 867 b 228 1157 269 1045 322 1161 b 183 1012 131 1163 174 1069 b 178 611 163 877 173 747 b 162 448 49 599 60 493 b 183 173 148 355 188 268 b 297 80 170 81 245 -84 b 302 507 269 223 299 364 b 939 554 472 537 740 500 b 1348 802 1106 506 1348 605 b 1480 106 1420 578 1464 338 b 1582 -161 1512 28 1454 -185 b 1580 130 1665 -111 1604 53 z m 166 505 b 172 499 167 506 172 499 b 166 505 165 489 157 501 z "},"i":{"ha":376,"x_min":0,"x_max":0,"o":"m 223 548 b 136 949 217 644 263 941 b 139 432 6 946 159 541 b 178 78 168 313 140 195 b 292 78 179 -1 292 7 b 223 548 246 231 268 393 z "},"ì":{"ha":376,"x_min":0,"x_max":0,"o":"m 223 548 b 136 949 217 644 263 941 b 139 432 6 946 159 541 b 178 78 168 313 140 195 b 292 78 179 -1 292 7 b 223 548 246 231 268 393 z "},"í":{"ha":376,"x_min":0,"x_max":0,"o":"m 223 548 b 136 949 217 644 263 941 b 139 432 6 946 159 541 b 178 78 168 313 140 195 b 292 78 179 -1 292 7 b 223 548 246 231 268 393 z "},"î":{"ha":376,"x_min":0,"x_max":0,"o":"m 223 548 b 136 949 217 644 263 941 b 139 432 6 946 159 541 b 178 78 168 313 140 195 b 292 78 179 -1 292 7 b 223 548 246 231 268 393 z "},"ï":{"ha":376,"x_min":0,"x_max":0,"o":"m 223 548 b 136 949 217 644 263 941 b 139 432 6 946 159 541 b 178 78 168 313 140 195 b 292 78 179 -1 292 7 b 223 548 246 231 268 393 z "},"j":{"ha":1129,"x_min":0,"x_max":0,"o":"m 1021 896 b 764 1181 1113 1075 924 1189 b 547 1238 688 1188 618 1210 b 302 1250 464 1223 383 1244 b 183 1288 297 1333 164 1431 b 226 642 214 1073 280 861 b 351 641 225 582 347 580 b 346 841 372 710 368 773 b 328 1141 362 940 352 1042 b 920 1003 483 1119 765 1098 b 911 846 936 963 915 889 b 771 -72 899 535 828 232 b 495 -202 745 -194 599 -211 b 182 156 320 -174 245 14 b 151 317 162 205 227 302 b 137 -28 27 316 105 46 b 809 -210 276 -242 603 -475 b 992 472 942 -11 922 247 b 1021 896 981 616 1028 750 z "},"k":{"ha":1361,"x_min":0,"x_max":0,"o":"m 882 801 b 1206 954 960 796 1461 848 b 311 777 907 909 613 828 b 307 1152 280 886 426 1090 b 193 721 178 1205 224 806 b 189 519 87 667 13 513 b 160 294 190 443 177 368 b 162 74 177 220 177 149 b 280 74 170 -2 284 -18 b 282 486 263 214 306 350 b 728 315 436 437 577 366 b 961 159 815 287 957 279 b 955 -70 976 -17 923 105 b 998 -167 962 -105 973 -135 b 1059 -103 1048 -230 1112 -155 b 1055 129 1038 66 1074 -44 b 894 386 1091 257 1008 341 b 285 583 686 434 497 536 b 304 641 286 602 303 622 b 882 801 474 739 702 712 z "},"l":{"ha":1017,"x_min":0,"x_max":0,"o":"m 887 64 b 191 153 652 87 426 141 b 217 941 195 463 233 630 b 105 910 194 1000 78 983 b 90 561 131 748 123 719 b 89 34 85 387 107 204 b 201 49 47 -141 246 -98 b 749 -32 376 -6 566 0 b 932 -11 806 -32 901 -81 b 887 64 939 15 917 60 z "},"m":{"ha":2136,"x_min":0,"x_max":0,"o":"m 2047 55 b 1863 504 1950 188 1896 344 b 1579 838 1807 617 1763 936 b 973 227 1357 655 1196 406 b 241 886 689 398 464 647 b 204 1080 232 947 275 1051 b 125 931 109 1102 121 993 b 124 837 90 914 77 852 b 86 -6 120 556 126 273 b 194 -36 66 -80 174 -108 b 199 74 202 0 194 38 b 226 721 278 285 202 510 b 1626 733 1179 -74 751 -135 b 1950 -2 1788 516 1776 214 b 2047 55 1981 -65 2075 4 z "},"n":{"ha":1431,"x_min":0,"x_max":0,"o":"m 1335 1161 b 1237 1218 1380 1231 1284 1286 b 1136 659 1037 1004 1168 920 b 1090 265 1161 445 1112 479 b 311 1018 892 570 618 825 b 238 1063 310 1061 271 1074 b 193 952 54 1193 28 1041 b 418 144 228 801 160 31 b 375 249 455 182 415 244 b 313 885 342 446 302 673 b 487 738 385 851 441 802 b 801 427 626 666 702 540 b 1178 92 907 383 1076 -70 b 1261 591 1198 339 1252 343 b 1254 974 1259 796 1195 779 b 1335 1161 1270 1041 1295 1104 z "},"ñ":{"ha":1431,"x_min":0,"x_max":0,"o":"m 1335 1161 b 1237 1218 1380 1231 1284 1286 b 1136 659 1037 1004 1168 920 b 1090 265 1161 445 1112 479 b 311 1018 892 570 618 825 b 238 1063 310 1061 271 1074 b 193 952 54 1193 28 1041 b 418 144 228 801 160 31 b 375 249 455 182 415 244 b 313 885 342 446 302 673 b 487 738 385 851 441 802 b 801 427 626 666 702 540 b 1178 92 907 383 1076 -70 b 1261 591 1198 339 1252 343 b 1254 974 1259 796 1195 779 b 1335 1161 1270 1041 1295 1104 z "},"o":{"ha":1438,"x_min":0,"x_max":0,"o":"m 1077 729 b 111 639 919 830 -96 1054 b 331 68 54 412 100 169 b 1207 96 594 -68 965 -119 b 1077 729 1401 327 1445 671 z m 909 49 b 250 749 426 32 23 196 b 328 781 276 754 321 751 b 888 714 520 784 702 760 b 1260 457 1006 629 1241 635 b 909 49 1256 258 1093 94 z "},"ò":{"ha":1438,"x_min":0,"x_max":0,"o":"m 1077 729 b 111 639 919 830 -96 1054 b 331 68 54 412 100 169 b 1207 96 594 -68 965 -119 b 1077 729 1401 327 1445 671 z m 909 49 b 250 749 426 32 23 196 b 328 781 276 754 321 751 b 888 714 520 784 702 760 b 1260 457 1006 629 1241 635 b 909 49 1256 258 1093 94 z "},"ó":{"ha":1438,"x_min":0,"x_max":0,"o":"m 1077 729 b 111 639 919 830 -96 1054 b 331 68 54 412 100 169 b 1207 96 594 -68 965 -119 b 1077 729 1401 327 1445 671 z m 909 49 b 250 749 426 32 23 196 b 328 781 276 754 321 751 b 888 714 520 784 702 760 b 1260 457 1006 629 1241 635 b 909 49 1256 258 1093 94 z "},"ô":{"ha":1438,"x_min":0,"x_max":0,"o":"m 1077 729 b 111 639 919 830 -96 1054 b 331 68 54 412 100 169 b 1207 96 594 -68 965 -119 b 1077 729 1401 327 1445 671 z m 909 49 b 250 749 426 32 23 196 b 328 781 276 754 321 751 b 888 714 520 784 702 760 b 1260 457 1006 629 1241 635 b 909 49 1256 258 1093 94 z "},"õ":{"ha":1438,"x_min":0,"x_max":0,"o":"m 1077 729 b 111 639 919 830 -96 1054 b 331 68 54 412 100 169 b 1207 96 594 -68 965 -119 b 1077 729 1401 327 1445 671 z m 909 49 b 250 749 426 32 23 196 b 328 781 276 754 321 751 b 888 714 520 784 702 760 b 1260 457 1006 629 1241 635 b 909 49 1256 258 1093 94 z "},"ö":{"ha":1438,"x_min":0,"x_max":0,"o":"m 1077 729 b 111 639 919 830 -96 1054 b 331 68 54 412 100 169 b 1207 96 594 -68 965 -119 b 1077 729 1401 327 1445 671 z m 909 49 b 250 749 426 32 23 196 b 328 781 276 754 321 751 b 888 714 520 784 702 760 b 1260 457 1006 629 1241 635 b 909 49 1256 258 1093 94 z "},"ø":{"ha":1438,"x_min":0,"x_max":0,"o":"m 1077 729 b 111 639 919 830 -96 1054 b 331 68 54 412 100 169 b 1207 96 594 -68 965 -119 b 1077 729 1401 327 1445 671 z m 909 49 b 250 749 426 32 23 196 b 328 781 276 754 321 751 b 888 714 520 784 702 760 b 1260 457 1006 629 1241 635 b 909 49 1256 258 1093 94 z "},"p":{"ha":1250,"x_min":0,"x_max":0,"o":"m 684 951 b 163 1056 619 992 271 1070 b 311 927 -44 1022 206 937 b 319 818 276 892 270 794 b 310 744 340 799 306 768 b 342 501 328 663 338 583 b 390 326 362 441 408 392 b 431 217 233 330 290 153 b 419 -96 464 112 431 10 b 473 -155 411 -132 445 -151 b 532 224 626 -164 516 128 b 846 242 641 224 736 235 b 1075 331 926 247 1007 293 b 684 951 1352 595 940 904 z m 1034 453 b 504 320 905 298 678 380 b 452 534 507 398 493 468 b 395 915 417 653 483 822 b 944 708 589 867 780 829 b 1034 453 992 632 1088 549 z "},"q":{"ha":1440,"x_min":0,"x_max":0,"o":"m 1355 325 b 688 831 1183 522 972 810 b 175 605 509 814 245 802 b 124 255 105 519 38 354 b 912 -70 253 -52 783 104 b 1159 -337 1008 -152 1135 -197 b 1251 -362 1171 -362 1228 -376 b 975 24 1344 -211 1051 -90 b 1355 325 1122 75 1380 117 z m 910 127 b 905 117 908 126 907 118 b 890 119 903 122 888 125 b 799 107 880 179 798 157 b 356 612 503 87 -80 313 b 369 672 381 627 377 651 b 857 675 531 681 693 752 b 910 127 1121 441 1546 204 z "},"r":{"ha":1274,"x_min":0,"x_max":0,"o":"m 1138 92 b 1030 280 1106 203 1092 187 b 905 443 1000 344 961 399 b 838 516 883 458 862 512 b 974 946 1092 560 1297 802 b 507 1042 814 980 666 1006 b 332 992 453 1034 339 1069 b 467 913 316 920 422 933 b 915 658 597 886 1284 855 b 684 604 843 630 759 618 b 540 587 641 614 571 630 b 356 558 478 581 417 570 b 245 996 363 705 383 899 b 83 1015 212 1047 101 1114 b 134 941 82 988 101 950 b 253 541 318 905 189 637 b 260 445 213 520 219 461 b 368 453 265 -277 474 -279 b 681 496 478 438 571 502 b 822 384 726 468 793 426 b 1167 -49 982 148 1091 -164 b 1138 92 1214 27 1184 28 z "},"s":{"ha":1451,"x_min":0,"x_max":0,"o":"m 1402 42 b 1372 81 1394 56 1383 69 b 1079 334 1285 177 1191 267 b 746 516 971 400 859 460 b 338 723 610 584 470 646 b 236 812 298 746 262 773 b 256 864 222 834 231 858 b 382 868 298 875 340 870 b 866 763 549 858 708 812 b 1010 746 913 749 961 741 b 1073 767 1033 748 1055 753 b 1090 819 1090 781 1098 798 b 1053 844 1084 835 1070 847 b 864 882 984 832 925 863 b 780 909 836 890 808 900 b 399 983 656 948 531 980 b 292 985 364 984 328 986 b 178 962 253 985 215 977 b 117 749 102 932 43 843 b 170 692 134 729 151 709 b 338 577 221 646 276 606 b 698 405 458 520 580 465 b 989 246 797 355 894 302 b 1236 43 1081 192 1166 125 b 1270 -29 1254 22 1288 4 b 1199 -47 1255 -55 1224 -48 b 1121 -37 1173 -46 1147 -43 b 924 15 1055 -21 988 -6 b 465 178 770 67 618 123 b 218 268 383 207 300 238 b 142 276 194 277 169 285 b 98 229 120 268 102 255 b 120 179 95 209 103 190 b 181 148 139 166 160 156 b 831 -87 397 69 613 -10 b 1036 -146 898 -110 967 -128 b 1220 -168 1096 -163 1158 -168 b 1351 -138 1266 -168 1310 -159 b 1402 42 1425 -101 1445 -27 z "},"t":{"ha":1735,"x_min":0,"x_max":0,"o":"m 1594 751 b 1269 738 1484 777 1379 744 b 730 782 1087 760 911 757 b 126 755 757 943 -116 912 b 615 671 284 699 458 725 b 684 14 640 372 641 311 b 743 -161 677 -50 644 -159 b 758 206 866 -76 759 71 b 743 660 767 390 754 476 b 1600 638 1027 652 1313 643 b 1594 751 1668 644 1670 756 z "},"u":{"ha":1674,"x_min":0,"x_max":0,"o":"m 1482 702 b 1357 638 1512 870 1326 763 b 1437 223 1328 483 1576 347 b 1050 30 1345 97 1187 76 b 720 -32 935 3 841 -57 b 230 274 487 -78 218 -14 b 182 753 233 437 187 590 b 84 754 181 819 77 824 b 118 217 115 575 108 397 b 275 -74 153 113 185 -4 b 605 -158 386 -104 485 -183 b 1128 -54 786 -159 967 -140 b 1426 79 1237 -26 1340 3 b 1482 702 1800 240 1406 486 z "},"ù":{"ha":1674,"x_min":0,"x_max":0,"o":"m 1482 702 b 1357 638 1512 870 1326 763 b 1437 223 1328 483 1576 347 b 1050 30 1345 97 1187 76 b 720 -32 935 3 841 -57 b 230 274 487 -78 218 -14 b 182 753 233 437 187 590 b 84 754 181 819 77 824 b 118 217 115 575 108 397 b 275 -74 153 113 185 -4 b 605 -158 386 -104 485 -183 b 1128 -54 786 -159 967 -140 b 1426 79 1237 -26 1340 3 b 1482 702 1800 240 1406 486 z "},"ú":{"ha":1674,"x_min":0,"x_max":0,"o":"m 1482 702 b 1357 638 1512 870 1326 763 b 1437 223 1328 483 1576 347 b 1050 30 1345 97 1187 76 b 720 -32 935 3 841 -57 b 230 274 487 -78 218 -14 b 182 753 233 437 187 590 b 84 754 181 819 77 824 b 118 217 115 575 108 397 b 275 -74 153 113 185 -4 b 605 -158 386 -104 485 -183 b 1128 -54 786 -159 967 -140 b 1426 79 1237 -26 1340 3 b 1482 702 1800 240 1406 486 z "},"û":{"ha":1674,"x_min":0,"x_max":0,"o":"m 1482 702 b 1357 638 1512 870 1326 763 b 1437 223 1328 483 1576 347 b 1050 30 1345 97 1187 76 b 720 -32 935 3 841 -57 b 230 274 487 -78 218 -14 b 182 753 233 437 187 590 b 84 754 181 819 77 824 b 118 217 115 575 108 397 b 275 -74 153 113 185 -4 b 605 -158 386 -104 485 -183 b 1128 -54 786 -159 967 -140 b 1426 79 1237 -26 1340 3 b 1482 702 1800 240 1406 486 z "},"ü":{"ha":1674,"x_min":0,"x_max":0,"o":"m 1482 702 b 1357 638 1512 870 1326 763 b 1437 223 1328 483 1576 347 b 1050 30 1345 97 1187 76 b 720 -32 935 3 841 -57 b 230 274 487 -78 218 -14 b 182 753 233 437 187 590 b 84 754 181 819 77 824 b 118 217 115 575 108 397 b 275 -74 153 113 185 -4 b 605 -158 386 -104 485 -183 b 1128 -54 786 -159 967 -140 b 1426 79 1237 -26 1340 3 b 1482 702 1800 240 1406 486 z "},"v":{"ha":1601,"x_min":0,"x_max":0,"o":"m 1474 921 b 1412 877 1448 928 1423 910 b 944 27 1289 580 1168 263 b 475 559 779 202 615 366 b 83 671 401 617 119 842 b 257 573 92 592 208 614 b 497 321 357 509 456 434 b 833 -7 615 215 712 94 b 983 -91 874 -45 916 -156 b 1387 549 1152 95 1312 308 b 1474 921 1414 656 1598 837 z "},"w":{"ha":1868,"x_min":0,"x_max":0,"o":"m 1688 978 b 1583 706 1592 917 1570 812 b 1570 506 1560 640 1559 574 b 1454 -85 1569 303 1511 107 b 1290 91 1413 -12 1361 46 b 908 526 1195 263 1037 379 b 775 432 832 599 804 481 b 377 -73 627 274 517 92 b 196 484 252 80 204 289 b 222 762 195 540 303 756 b 110 304 84 787 54 394 b 330 -201 84 104 241 -40 b 678 161 431 -291 626 86 b 881 420 773 224 820 327 b 1423 -225 1056 199 1258 4 b 1557 -111 1508 -284 1545 -179 b 1611 90 1594 -47 1610 17 b 1702 815 1729 324 1615 584 b 1771 894 1716 846 1744 869 b 1688 978 1816 935 1730 1017 z "},"x":{"ha":1310,"x_min":0,"x_max":0,"o":"m 1133 970 b 644 479 988 791 790 662 b 217 892 508 618 391 807 b 88 823 179 893 58 886 b 261 730 108 741 211 800 b 561 401 379 628 473 515 b 188 -318 526 347 -147 -463 b 632 309 305 -86 449 122 b 887 -81 732 186 801 51 b 994 -18 932 -152 1031 -91 b 710 398 907 129 811 260 b 1034 737 814 516 957 595 b 1210 893 1107 775 1164 824 b 1133 970 1259 938 1182 1015 z "},"y":{"ha":1372,"x_min":0,"x_max":0,"o":"m 1206 1052 b 1125 998 1178 1039 1130 1035 b 731 689 985 903 864 793 b 675 715 716 705 696 722 b 259 1171 512 802 448 1155 b 618 572 162 1078 583 716 b 132 91 615 27 650 130 b 132 -40 65 88 69 -36 b 249 -20 171 -39 210 -20 b 946 -91 481 -53 714 -48 b 974 3 1005 -103 1050 -5 b 670 68 871 19 775 60 b 741 557 741 213 730 395 b 1163 901 880 676 1039 765 b 1268 974 1197 927 1235 948 b 1206 1052 1320 1015 1260 1081 z "},"ý":{"ha":1372,"x_min":0,"x_max":0,"o":"m 1206 1052 b 1125 998 1178 1039 1130 1035 b 731 689 985 903 864 793 b 675 715 716 705 696 722 b 259 1171 512 802 448 1155 b 618 572 162 1078 583 716 b 132 91 615 27 650 130 b 132 -40 65 88 69 -36 b 249 -20 171 -39 210 -20 b 946 -91 481 -53 714 -48 b 974 3 1005 -103 1050 -5 b 670 68 871 19 775 60 b 741 557 741 213 730 395 b 1163 901 880 676 1039 765 b 1268 974 1197 927 1235 948 b 1206 1052 1320 1015 1260 1081 z "},"ÿ":{"ha":1372,"x_min":0,"x_max":0,"o":"m 1206 1052 b 1125 998 1178 1039 1130 1035 b 731 689 985 903 864 793 b 675 715 716 705 696 722 b 259 1171 512 802 448 1155 b 618 572 162 1078 583 716 b 132 91 615 27 650 130 b 132 -40 65 88 69 -36 b 249 -20 171 -39 210 -20 b 946 -91 481 -53 714 -48 b 974 3 1005 -103 1050 -5 b 670 68 871 19 775 60 b 741 557 741 213 730 395 b 1163 901 880 676 1039 765 b 1268 974 1197 927 1235 948 b 1206 1052 1320 1015 1260 1081 z "},"z":{"ha":1928,"x_min":0,"x_max":0,"o":"m 1800 688 b 472 786 1378 836 910 886 b 213 676 395 748 199 799 b 621 712 302 564 494 732 b 968 727 737 693 853 708 b 1200 718 1045 709 1121 707 b 1548 649 1321 711 1426 648 b 757 459 1281 590 1006 589 b 333 -82 605 326 -364 -92 b 1089 -100 588 -116 835 -132 b 1630 -85 1267 -120 1448 -81 b 1630 24 1709 -80 1718 27 b 275 21 1181 9 728 -19 b 1009 445 501 193 750 325 b 1685 571 1237 463 1468 511 b 1800 687 1763 567 1922 599 z "}," ":{"ha":806,"x_min":0,"x_max":0,"o":""},"­":{"ha":0,"x_min":0,"x_max":0,"o":""}}}
